<?xml version="1.0" standalone="no"?>
<!DOCTYPE svg PUBLIC "-//W3C//DTD SVG 20010904//EN"
 "http://www.w3.org/TR/2001/REC-SVG-20010904/DTD/svg10.dtd">
<svg version="1.0" xmlns="http://www.w3.org/2000/svg"
 width="1228.000000pt" height="1484.000000pt" viewBox="0 0 1228.000000 1484.000000"
 preserveAspectRatio="xMidYMid meet">
<metadata>
Created by potrace 1.16, written by Peter Selinger 2001-2019
</metadata>
<g transform="translate(0.000000,1484.000000) scale(0.100000,-0.100000)"
fill="#000000" stroke="none">
<path d="M6045 14816 c-38 -18 -119 -94 -350 -327 l-300 -304 305 302 c168
165 320 309 339 318 18 9 57 19 87 22 115 12 21 99 1424 -1301 l1275 -1271
-1265 1269 c-1024 1027 -1275 1273 -1315 1292 -66 31 -134 31 -200 0z"/>
<path d="M3800 12065 l-2345 -2345 2345 -2345 2345 -2345 2345 2345 2345 2345
-2345 2345 -2345 2345 -2345 -2345z m2412 1922 c25 -11 4126 -4098 4176 -4161
33 -43 45 -98 32 -148 -10 -39 -213 -245 -2088 -2122 -1448 -1449 -2089 -2084
-2117 -2097 -51 -24 -89 -24 -140 0 -28 13 -669 648 -2117 2097 -1875 1877
-2078 2083 -2088 2122 -14 53 -1 106 38 153 59 74 4144 4145 4170 4156 15 7
45 12 67 12 22 0 52 -5 67 -12z"/>
<path d="M5860 12775 c-906 -110 -1669 -735 -1959 -1605 -100 -299 -139 -635
-110 -950 28 -309 149 -711 278 -920 17 -28 31 -53 31 -56 0 -3 25 -45 57 -92
199 -303 465 -562 761 -743 99 -60 314 -163 422 -202 120 -43 304 -91 440
-114 153 -26 581 -26 730 1 495 87 889 279 1239 604 624 579 884 1413 702
2252 -77 353 -265 730 -501 1004 -402 467 -954 760 -1552 825 -128 14 -406 12
-538 -4z m130 -465 c16 -163 34 -183 34 -38 0 9 3 15 8 12 4 -3 8 -17 8 -32 0
-15 4 -43 9 -62 5 -19 12 -48 15 -63 6 -24 9 -27 22 -16 12 10 17 9 28 -6 13
-18 14 -17 19 11 3 16 9 54 13 84 12 100 23 89 24 -22 0 -97 11 -146 23 -101
3 11 5 6 6 -12 2 -26 4 -23 16 20 7 28 16 83 20 123 4 40 10 71 13 68 2 -3 5
-57 4 -121 0 -65 3 -115 9 -115 5 0 10 10 10 23 l2 22 4 -22 c2 -13 9 -23 14
-23 5 0 9 10 10 23 1 21 1 21 8 -3 6 -22 9 -17 24 36 9 33 17 69 17 80 0 11 7
29 15 40 13 17 14 9 12 -80 -2 -77 1 -100 12 -104 9 -3 11 0 6 9 -5 10 -5 11
3 4 5 -5 12 -19 15 -30 4 -18 5 -18 6 3 1 26 21 30 22 5 0 -15 2 -15 9 2 8 18
9 18 10 -5 1 -39 31 47 107 309 14 52 28 91 30 85 1 -5 -14 -91 -35 -192 -21
-101 -35 -185 -30 -188 4 -3 12 5 17 18 4 13 19 52 32 87 12 35 25 59 26 54 4
-11 -17 -128 -32 -183 l-7 -25 16 22 c9 13 22 37 27 55 6 18 17 47 23 63 7 17
35 90 61 162 27 73 50 132 51 130 2 -2 -10 -46 -96 -346 -16 -58 -28 -106 -26
-109 3 -2 26 41 52 97 27 55 50 99 52 97 2 -2 -8 -47 -22 -100 -28 -104 -32
-141 -15 -131 6 4 8 13 5 21 -6 17 10 19 20 3 4 -8 9 -7 15 2 6 11 9 10 15 -4
5 -14 9 -15 20 -6 8 6 14 18 14 25 0 8 4 14 8 14 4 0 21 25 37 55 15 30 33 55
38 55 5 0 6 -8 2 -17 -27 -65 -57 -164 -52 -170 4 -3 14 0 23 8 16 13 17 11
12 -13 -6 -31 9 -38 19 -10 4 9 12 22 17 28 6 6 31 41 56 77 24 36 46 64 48
62 2 -2 -13 -38 -33 -80 -22 -47 -34 -84 -30 -96 4 -11 2 -19 -4 -19 -6 0 -11
-4 -11 -10 0 -25 25 -3 90 81 38 50 70 89 70 87 0 -2 -12 -29 -26 -59 -63
-130 -75 -161 -58 -155 9 4 23 1 31 -6 12 -10 18 -9 27 4 27 37 111 128 119
128 8 0 -8 -30 -43 -85 -27 -41 -51 -97 -45 -103 2 -3 39 30 81 72 42 42 78
76 80 76 2 0 -12 -24 -31 -52 -19 -29 -39 -63 -44 -75 -6 -11 -15 -24 -21 -28
-9 -6 -9 -10 1 -16 11 -6 9 -12 -5 -31 -11 -13 56 53 148 146 91 93 166 167
166 164 0 -3 -34 -48 -75 -99 -79 -99 -96 -133 -43 -83 l31 29 -33 -47 c-18
-27 -42 -55 -52 -65 -10 -9 -18 -23 -18 -31 0 -8 -11 -23 -25 -34 -26 -20 -57
-67 -36 -54 13 8 15 -5 4 -20 -5 -5 9 7 30 28 21 21 42 38 47 38 4 0 10 3 12
8 2 4 23 25 48 46 25 21 72 64 105 94 33 31 78 72 100 91 l40 36 -36 -40 c-19
-22 -69 -76 -110 -121 -156 -170 -206 -233 -134 -173 11 9 50 42 86 73 101 85
95 73 -28 -62 -26 -29 -38 -49 -31 -53 6 -4 7 -12 4 -18 -4 -6 -12 -9 -17 -5
-6 3 -5 -3 2 -14 l13 -20 40 20 c23 12 55 31 71 43 47 35 85 58 85 51 0 -3
-32 -37 -72 -76 -109 -106 -65 -114 86 -15 56 37 33 5 -42 -61 l-79 -68 23
-19 c28 -22 42 -18 133 30 35 18 66 32 68 29 3 -2 -27 -28 -66 -57 -62 -47
-70 -56 -64 -78 10 -41 27 -66 43 -65 8 1 23 2 33 3 11 1 15 6 11 13 -4 6 -3
8 3 5 9 -6 232 89 306 129 16 9 30 14 32 12 3 -2 -51 -35 -118 -73 -180 -101
-255 -148 -227 -141 14 3 33 6 43 6 10 0 15 5 12 11 -4 6 -1 9 6 8 8 -2 40 7
72 19 32 12 61 22 64 22 9 0 -70 -49 -120 -74 -47 -24 -38 -41 11 -20 20 9 55
22 77 29 22 7 84 29 138 49 54 20 95 32 92 26 -3 -5 -10 -10 -15 -10 -18 0
-320 -152 -320 -161 0 -5 5 -9 10 -9 6 0 10 5 10 11 0 5 4 8 10 4 5 -3 32 2
60 11 76 25 71 10 -12 -31 -100 -50 -109 -58 -72 -66 l29 -7 -27 -1 c-35 -1
-37 -21 -3 -21 29 0 34 -16 8 -23 -55 -14 48 -4 128 13 51 10 95 18 97 16 2
-2 -30 -16 -70 -30 -90 -33 -138 -57 -138 -68 0 -4 5 -8 10 -8 6 0 10 -6 10
-14 0 -22 23 -25 100 -15 77 11 126 7 75 -5 -16 -4 -37 -10 -45 -14 -8 -3 -37
-13 -64 -21 -33 -11 -50 -22 -52 -34 -2 -17 4 -18 74 -12 89 8 80 8 112 5 14
-1 -14 -12 -62 -23 -81 -21 -119 -37 -87 -37 8 -1 3 -7 -11 -15 -19 -11 -21
-14 -7 -15 9 0 17 -7 17 -15 0 -11 20 -15 103 -17 l102 -3 -65 -12 c-36 -6
-84 -15 -108 -18 -71 -11 -36 -25 63 -25 52 0 96 -4 99 -8 3 -5 -34 -14 -81
-20 -48 -6 -89 -16 -93 -22 -4 -6 -14 -8 -23 -4 -9 3 -17 2 -17 -4 0 -12 24
-22 51 -22 11 0 17 -4 14 -10 -4 -6 41 -10 127 -11 73 -1 174 -4 223 -8 l90
-8 -117 -1 c-76 -1 -118 -6 -118 -13 0 -5 -3 -8 -8 -5 -4 2 -30 0 -57 -5 -27
-5 -78 -10 -111 -10 -52 -1 -61 -4 -59 -18 2 -9 4 -22 4 -28 1 -8 15 -13 35
-13 30 0 345 -34 401 -43 11 -2 -79 -2 -200 -1 l-220 3 102 -17 c56 -9 104
-19 106 -22 3 -3 -48 -4 -114 -2 -119 3 -184 -9 -126 -23 33 -9 26 -25 -11
-26 -31 -1 58 -31 147 -50 75 -15 50 -29 -34 -18 -76 10 -149 3 -139 -13 3 -5
15 -7 26 -5 13 4 18 1 15 -7 -3 -8 19 -19 70 -31 41 -10 82 -24 91 -31 18 -14
3 -13 -112 6 -26 4 -60 4 -75 0 -14 -5 -20 -9 -13 -9 17 -1 15 -21 -3 -21 -8
0 -15 -4 -15 -10 0 -12 23 -24 99 -51 65 -22 124 -49 106 -49 -5 1 -39 7 -75
15 -100 22 -128 20 -136 -10 -4 -15 -13 -25 -24 -25 -11 0 -22 -5 -25 -10 -4
-7 4 -9 24 -5 17 3 33 0 37 -6 5 -8 -1 -10 -20 -7 -14 3 -29 0 -33 -6 -3 -6
-2 -8 2 -3 5 4 19 0 32 -8 13 -9 29 -13 35 -9 6 4 8 3 5 -3 -3 -5 13 -18 36
-28 23 -10 74 -33 112 -50 39 -18 94 -43 123 -55 101 -44 43 -30 -124 28 -235
83 -265 92 -259 82 3 -5 19 -11 35 -15 18 -4 27 -11 24 -17 -5 -7 0 -9 14 -6
12 4 20 3 18 -1 -3 -4 18 -19 47 -34 29 -14 61 -33 72 -41 19 -15 17 -15 -15
-5 -69 21 -125 43 -137 51 -6 5 -14 5 -17 -1 -3 -5 7 -12 24 -16 17 -4 28 -10
26 -14 -5 -7 22 -22 207 -117 48 -25 87 -48 87 -50 0 -2 -22 5 -50 16 -27 11
-72 29 -98 39 -26 11 -77 33 -113 49 -35 16 -80 33 -99 37 l-35 7 48 -31 c27
-17 53 -28 59 -25 7 4 8 2 4 -4 -4 -7 6 -18 25 -27 59 -31 21 -25 -66 10 -48
19 -94 35 -101 35 -19 0 -18 -19 1 -26 22 -9 18 -26 -4 -19 -11 3 -22 1 -26
-5 -3 -5 -1 -10 5 -10 6 0 9 -4 6 -9 -6 -9 33 -47 97 -95 47 -36 42 -44 -12
-17 -22 12 -43 21 -46 21 -11 0 -4 -32 11 -47 9 -10 13 -25 10 -39 -5 -18 2
-32 30 -59 41 -41 41 -51 1 -30 -15 8 -27 13 -28 12 -10 -35 -5 -78 12 -96
l20 -22 -27 7 c-24 6 -26 5 -21 -15 3 -12 -1 -28 -10 -37 -15 -14 -14 -39 2
-77 4 -10 4 -17 -1 -16 -20 3 -35 -2 -30 -10 4 -5 1 -11 -6 -13 -6 -2 -11 -19
-10 -37 0 -25 -2 -31 -11 -22 -8 8 -15 4 -28 -16 -16 -24 -16 -30 -3 -54 19
-37 18 -45 -3 -27 -36 30 -46 32 -38 8 6 -19 4 -22 -10 -17 -9 4 -26 1 -38 -5
-12 -7 -26 -11 -31 -10 -4 2 4 -19 19 -45 l26 -48 -34 33 c-27 26 -40 32 -57
27 -15 -5 -20 -13 -17 -26 6 -21 -12 -26 -31 -7 -9 9 -12 9 -12 0 0 -7 -10
-12 -22 -12 -50 0 -70 -11 -64 -36 l6 -23 -26 24 c-18 17 -31 22 -43 16 -9 -5
-22 -6 -28 -4 -8 3 -13 -4 -13 -18 0 -21 -1 -22 -20 -4 -11 10 -42 20 -71 23
l-50 5 5 -48 6 -48 -31 46 c-30 46 -77 87 -98 87 -6 0 -11 5 -11 10 0 6 -6 10
-14 10 -8 0 -17 6 -19 13 -14 33 -5 -37 13 -101 23 -84 25 -99 5 -57 l-14 30
6 -30 c3 -16 18 -75 34 -130 15 -55 26 -101 25 -102 -1 -2 -24 54 -50 125 -74
197 -80 211 -90 205 -5 -4 -6 -1 -3 4 8 13 -12 73 -24 73 -6 0 -5 -8 1 -19 13
-25 13 -31 0 -31 -5 0 -10 7 -10 15 0 18 -20 20 -21 3 0 -7 -4 -4 -9 7 -5 13
-9 14 -9 5 0 -20 17 -59 18 -41 1 8 4 12 7 9 3 -4 1 -15 -5 -25 -7 -14 -4 -44
10 -109 41 -188 59 -277 55 -281 -2 -2 -11 25 -20 59 -10 35 -23 81 -30 103
-7 22 -21 68 -31 102 -10 34 -21 60 -24 59 -3 -2 -7 14 -8 36 -1 41 -23 81
-23 43 0 -21 -15 -11 -23 15 -2 8 -3 3 -1 -11 2 -17 -2 -26 -12 -26 -8 0 -14
9 -14 20 0 11 -2 18 -5 15 -3 -3 0 -49 6 -102 6 -53 9 -99 6 -102 -2 -3 -17
36 -32 85 -16 50 -32 88 -38 84 -5 -3 -13 1 -18 8 -6 9 -7 -30 -3 -96 4 -60 4
-107 0 -104 -6 6 -23 68 -40 150 -5 22 -11 27 -33 26 -16 -1 -31 -6 -35 -12
-4 -5 -8 -50 -8 -98 0 -100 -14 -109 -24 -15 -9 78 -26 139 -37 132 -5 -3 -9
-17 -10 -32 0 -22 -2 -23 -8 -9 -9 25 -25 23 -33 -5 -5 -19 -6 -17 -7 12 -1
19 -5 30 -9 25 -20 -23 -32 -102 -42 -275 -7 -102 -13 -187 -16 -189 -2 -2 -4
86 -4 197 0 131 -4 202 -10 202 -6 0 -8 12 -4 28 4 20 3 23 -5 12 -5 -7 -13
-48 -17 -90 -10 -110 -23 -121 -24 -20 0 47 -4 91 -9 98 -7 12 -22 -81 -52
-336 -7 -56 -13 -101 -15 -99 -2 1 1 97 7 212 5 126 6 228 0 255 -7 37 -9 40
-10 15 -3 -49 -39 -242 -41 -215 -1 14 -1 66 0 115 l1 91 -47 -1 -48 0 -13
-47 c-42 -153 -43 -153 -38 -28 4 81 2 108 -5 92 -5 -13 -14 -20 -20 -17 -7 4
-7 12 0 25 8 15 6 17 -10 13 -11 -3 -20 -11 -20 -18 0 -7 -3 -15 -8 -17 -4 -1
-15 -29 -25 -61 -19 -59 -61 -159 -52 -122 6 26 35 187 35 199 0 4 -8 5 -17 2
-9 -4 -20 -1 -24 5 -4 7 -10 -6 -14 -30 -4 -22 -11 -41 -16 -41 -5 0 -9 -8 -9
-17 -1 -10 -7 -29 -15 -43 -14 -24 -14 -24 -15 -3 0 12 7 47 15 78 15 60 5
111 -21 101 -7 -3 -14 0 -16 6 -2 5 -24 -31 -48 -81 -25 -50 -49 -91 -54 -91
-4 0 -5 8 -1 18 24 55 45 151 40 179 -10 54 -19 47 -110 -97 -39 -62 -42 -38
-5 48 32 77 39 105 13 57 -9 -16 -15 -31 -14 -33 1 -1 -8 -12 -19 -24 -11 -12
-20 -25 -20 -29 0 -6 -114 -201 -140 -239 -12 -19 20 57 99 228 34 73 60 141
60 150 -1 15 -2 15 -6 -1 -2 -9 -9 -15 -14 -12 -5 4 -9 -1 -9 -9 0 -8 -6 -21
-13 -28 -8 -7 -26 -33 -41 -56 -15 -24 -31 -40 -36 -37 -6 4 -4 15 4 28 7 12
27 48 45 80 26 47 28 55 12 45 -11 -7 -18 -15 -16 -19 3 -3 -7 -19 -21 -35
-13 -16 -59 -80 -101 -141 -41 -62 -78 -113 -80 -113 -3 0 14 35 38 78 23 42
64 118 90 169 26 50 50 89 55 85 4 -4 4 -1 0 5 -4 7 -3 20 2 30 6 11 6 20 -2
28 -8 10 -14 7 -26 -11 -25 -39 -135 -172 -138 -169 -2 2 15 37 37 78 22 41
45 87 51 103 l10 29 -20 -23 -19 -23 -7 25 c-3 14 -9 26 -13 26 -3 0 -39 -35
-79 -77 -82 -87 -82 -84 -4 35 52 79 54 84 38 100 -16 16 -17 15 -10 -13 6
-26 5 -28 -8 -18 -12 11 -24 4 -73 -42 -32 -30 -59 -55 -61 -55 -13 0 -1 32
16 42 11 7 20 16 20 20 0 5 16 30 36 58 32 44 34 50 16 50 -11 0 -23 7 -26 16
-5 12 -21 3 -78 -42 -100 -78 -98 -77 -98 -71 0 3 32 42 70 88 39 46 66 85 60
87 -6 2 -22 14 -34 27 -17 17 -20 27 -13 34 6 6 8 11 4 11 -4 0 -10 0 -14 0
-5 0 -8 -5 -8 -12 0 -6 -6 -13 -14 -16 -9 -3 -11 0 -6 9 4 8 -3 3 -16 -11 -13
-13 -23 -28 -22 -31 1 -4 -4 -6 -11 -5 -13 1 -15 0 -174 -117 -104 -76 -105
-77 -52 -25 30 29 88 83 129 119 43 39 71 71 67 78 -5 7 -17 4 -39 -12 -18
-12 -33 -25 -35 -29 -2 -5 -8 -8 -14 -8 -6 0 -27 -12 -47 -26 -36 -27 71 80
145 145 l39 33 -40 -23 c-22 -13 -103 -64 -180 -114 -168 -109 -165 -107 -165
-101 0 2 58 49 129 105 71 55 135 106 142 113 8 7 27 23 43 36 16 12 24 22 18
22 -6 0 -13 -4 -16 -9 -10 -15 -84 -50 -92 -43 -4 4 -4 1 0 -5 5 -9 0 -13 -13
-13 -11 0 -22 -4 -25 -9 -3 -5 -16 -11 -28 -14 -20 -5 -19 -3 8 21 17 15 49
43 70 62 22 19 47 38 57 42 27 12 21 29 -7 18 -31 -11 -43 1 -15 16 20 10 18
12 -20 18 -30 5 -53 1 -84 -13 -60 -27 -119 -51 -125 -51 -8 0 72 59 81 60 15
0 106 74 101 82 -3 4 -14 8 -26 8 -17 0 -18 2 -8 15 18 22 3 19 -110 -19 -55
-19 -100 -32 -100 -28 1 4 38 26 83 49 61 31 81 46 80 60 -1 10 0 12 3 6 3 -7
13 -13 21 -13 13 0 13 3 3 15 -17 20 -28 19 -127 -11 -46 -14 -87 -24 -89 -21
-3 2 31 21 76 42 44 21 78 41 75 43 -3 3 0 11 6 18 7 8 7 14 -1 19 -6 3 -8 11
-5 16 9 14 -46 11 -115 -7 -92 -23 -95 -11 -5 24 85 33 83 38 -9 21 -31 -5
-62 -9 -67 -7 -10 3 117 58 169 73 28 8 29 25 1 25 -11 0 -17 4 -14 10 4 7 -3
7 -20 0 -37 -14 -43 -12 -20 6 19 14 16 15 -31 9 -29 -3 -114 -16 -190 -30
-77 -14 -146 -25 -154 -24 -8 0 63 22 159 47 163 44 174 49 177 72 1 14 0 19
-2 13 -3 -7 -15 -13 -27 -12 -21 0 -21 1 -2 9 16 7 17 9 3 9 -9 1 -18 6 -20
13 -5 13 -88 12 -187 -2 -112 -16 -131 -9 -31 12 52 10 100 24 105 30 7 8 6 9
-2 4 -7 -4 -13 -3 -13 3 0 5 18 12 41 16 38 7 40 9 34 33 -3 14 -14 32 -23 39
-16 11 -16 12 2 13 34 0 12 8 -44 15 -30 4 -56 8 -58 10 -2 2 15 6 38 10 37 6
41 10 38 33 -2 22 -11 28 -48 38 -25 7 -37 12 -28 13 30 2 73 22 62 29 -6 4
-10 17 -9 28 2 31 -16 51 -56 62 l-34 9 36 7 c35 8 36 8 37 62 0 44 -3 54 -16
54 -15 1 -15 2 2 15 23 17 22 18 -94 45 l-85 19 93 -6 c82 -5 92 -4 92 11 0
10 -14 23 -32 31 -33 14 -33 14 -6 15 15 0 31 8 37 18 9 15 0 20 -72 45 -45
15 -68 25 -51 23 131 -20 134 -20 134 1 0 11 -10 25 -22 31 -21 10 -20 11 15
11 20 1 37 6 37 11 0 6 -6 10 -12 10 -9 1 -8 4 2 13 8 7 16 17 16 22 1 6 4 22
8 37 5 21 2 31 -14 40 -23 15 -27 30 -6 22 24 -9 56 15 56 41 0 13 6 26 13 29
8 3 2 14 -18 31 l-30 27 38 -5 c20 -3 35 -2 32 3 -3 5 1 15 9 22 12 11 11 17
-10 38 l-24 26 35 -4 c30 -4 36 -1 45 22 5 14 14 26 20 26 19 0 10 26 -20 55
-34 33 -40 51 -11 35 37 -19 74 -10 104 25 l27 33 -42 37 c-40 35 -41 36 -10
21 17 -9 32 -15 32 -12 0 2 -30 28 -67 57 -113 88 -104 88 34 -1 59 -38 80
-47 90 -38 8 6 12 17 9 25 -3 7 -1 13 4 13 6 0 10 -4 10 -10 0 -5 4 -10 9 -10
5 0 8 12 7 26 -1 18 -22 47 -73 95 -40 38 -73 71 -73 75 0 3 26 -15 58 -39 61
-47 122 -87 134 -87 4 0 5 6 2 14 -3 8 3 15 13 18 22 6 27 46 9 68 -29 34 -27
42 5 18 48 -35 64 -44 55 -29 -4 6 -2 18 4 26 9 11 9 22 1 46 -6 18 -9 35 -6
37 3 3 5 1 5 -5 0 -5 12 -15 26 -21 23 -11 29 -9 56 18 29 30 30 31 13 56 -22
33 -13 41 21 19 25 -16 28 -16 36 -1 5 9 15 16 22 16 8 0 16 7 20 15 3 8 14
15 24 15 29 0 21 39 -27 120 -68 116 -66 116 22 2 27 -34 53 -60 58 -57 5 3 6
-2 2 -12 -5 -17 -5 -17 12 -2 13 13 15 21 6 37 -19 36 -11 48 13 21 26 -30 55
-25 38 7 -5 11 -26 51 -46 90 -20 39 -36 75 -36 80 0 4 28 -33 62 -84 49 -71
64 -88 71 -76 9 15 7 27 -8 69 -5 12 6 5 28 -18 25 -28 35 -33 34 -20 -1 11 4
18 16 17 9 -1 17 2 17 6 0 4 11 11 25 14 21 5 25 12 25 43 0 35 1 36 19 19 17
-15 24 -16 61 -5 l42 13 -6 45 -6 46 21 -32 c21 -34 39 -43 39 -20 0 9 2 9 8
0 15 -23 35 3 29 36 -8 40 -4 39 23 -5 16 -25 26 -32 33 -25 6 6 23 11 38 11
28 0 39 15 39 53 0 18 3 17 16 -10 9 -17 24 -33 35 -36 16 -4 19 0 20 26 1 18
1 39 0 47 -1 16 9 -4 30 -58 8 -23 15 -29 20 -21 6 10 11 10 22 0 23 -19 30
15 23 127 l-5 97 16 -79 c9 -47 19 -73 23 -65 5 8 12 -1 19 -27 6 -21 11 -44
11 -51 0 -7 7 -10 17 -6 10 4 14 2 10 -4 -3 -5 0 -10 8 -10 8 0 11 5 8 11 -4
6 1 5 10 -3 16 -12 17 -5 17 113 0 69 2 126 4 126 2 0 9 -59 16 -130z"/>
<path d="M6041 11403 c-1 -13 -5 -23 -11 -23 -5 0 -11 -28 -11 -62 l-1 -63
-12 55 c-10 47 -15 55 -35 56 -22 1 -23 -1 -17 -50 3 -28 8 -78 12 -111 l6
-61 -55 -17 c-30 -9 -75 -28 -101 -42 -26 -14 -51 -25 -56 -25 -5 0 -21 20
-35 44 -14 23 -35 52 -48 62 -12 10 -19 15 -15 10 4 -5 0 -15 -10 -23 -9 -8
-12 -12 -7 -10 6 3 11 -7 12 -21 l1 -26 -20 24 c-11 14 -17 19 -13 13 3 -7 1
-13 -4 -13 -19 0 -12 -39 15 -80 14 -21 24 -43 22 -48 -4 -13 -87 -102 -94
-102 -3 0 -25 14 -49 30 -49 34 -64 38 -44 13 13 -15 12 -15 -9 -4 -21 11 -22
11 -10 -8 10 -17 9 -22 -10 -38 l-23 -18 45 -39 45 -38 -29 -57 c-16 -31 -35
-78 -42 -104 l-13 -49 -71 7 c-60 5 -72 4 -77 -9 -4 -10 3 -21 21 -31 l27 -15
-25 2 c-30 3 -50 -8 -50 -27 0 -9 24 -17 69 -26 38 -6 74 -15 79 -18 5 -3 12
-40 15 -82 l7 -76 -70 -12 c-90 -15 -123 -28 -117 -45 3 -8 1 -17 -6 -20 -7
-2 11 -3 38 0 l50 4 -39 -13 c-22 -8 -42 -19 -44 -25 -2 -7 -11 -12 -20 -13
-10 0 -6 -5 10 -10 19 -8 51 -6 111 5 46 9 90 16 99 16 9 0 32 -33 57 -84 22
-47 46 -88 51 -91 22 -14 6 -33 -75 -94 -66 -51 -84 -69 -80 -85 2 -12 4 -23
4 -25 1 -2 9 2 19 10 9 8 33 23 52 33 34 18 33 17 -15 -33 -32 -33 -43 -50
-30 -46 18 6 17 4 -4 -14 -60 -54 42 10 146 91 35 26 65 48 69 48 3 0 33 -21
67 -47 33 -27 65 -51 71 -55 8 -5 7 -14 -2 -28 -40 -65 -113 -212 -108 -217 3
-4 6 -1 6 6 0 7 5 9 10 6 6 -4 7 -12 3 -18 -4 -7 1 -6 10 2 10 8 15 16 13 18
-2 3 3 12 12 22 10 9 25 28 35 41 17 24 17 24 1 -15 -17 -42 -29 -108 -16 -89
4 6 14 13 22 16 8 3 36 43 62 89 27 46 52 90 56 97 7 11 24 9 90 -7 44 -12 95
-21 112 -21 l32 0 -4 -147 c-3 -81 -1 -138 3 -127 6 17 7 16 11 -6 5 -25 5
-25 7 3 0 15 6 27 11 27 6 0 10 15 11 33 1 17 5 43 9 57 6 19 8 11 9 -33 1
-36 5 -56 11 -52 6 4 10 -6 11 -22 l1 -28 10 30 c5 17 13 82 16 145 l7 114 55
11 c30 6 67 14 82 18 26 7 27 5 53 -80 49 -165 47 -160 56 -138 8 20 8 20 9 0
1 -20 1 -20 9 0 4 11 4 37 -1 59 -10 43 -3 64 8 22 3 -14 10 -26 15 -26 5 0 6
-7 3 -15 -9 -23 2 -18 19 9 14 21 13 31 -13 121 -28 97 -30 115 -8 115 6 0 32
16 58 35 l48 35 37 -48 c66 -82 117 -131 132 -125 11 4 8 15 -12 51 l-26 47
24 -23 c23 -22 77 -38 77 -23 0 3 -34 48 -76 99 l-75 94 39 51 c21 29 49 71
62 95 13 23 28 42 34 42 6 0 53 -18 105 -41 74 -31 96 -37 102 -27 13 20 12
23 -31 47 -52 29 -51 34 2 15 34 -12 47 -12 65 -3 22 12 21 13 -20 34 -23 13
-71 35 -107 50 -36 15 -69 30 -73 35 -5 4 -3 43 3 87 l12 79 111 -4 c64 -2
123 1 137 6 21 9 22 11 5 12 -17 0 -18 2 -5 11 12 8 10 9 -7 4 -12 -3 -24 -1
-28 5 -3 5 -25 11 -48 11 -42 1 -41 2 11 9 29 4 56 11 60 15 16 15 -35 35 -92
36 -34 0 -81 4 -105 7 l-44 7 -13 60 c-7 33 -20 80 -28 104 -9 24 -16 47 -16
50 0 4 38 24 85 45 47 21 82 42 79 47 -3 5 3 6 12 2 13 -5 16 -3 11 10 -3 8
-1 18 6 20 17 6 -35 -1 -69 -9 -26 -7 -28 -6 -15 9 7 10 19 17 27 17 7 0 16 5
20 12 5 7 2 9 -8 6 -9 -4 -15 0 -15 8 0 8 5 14 10 14 6 0 8 2 5 5 -3 3 -41
-11 -84 -31 -133 -60 -116 -62 -175 12 l-51 64 38 45 c22 25 58 68 82 96 40
47 46 70 19 68 -9 0 -8 -2 1 -6 6 -2 9 -9 6 -14 -3 -6 -12 -5 -22 3 -12 10
-14 10 -8 1 4 -7 3 -13 -3 -13 -5 0 -23 -12 -40 -26 -17 -14 -31 -21 -31 -15
0 5 3 12 8 15 4 2 23 26 41 53 31 42 31 45 8 24 -15 -14 -27 -19 -27 -13 0 6
5 14 10 17 6 3 10 12 10 18 0 7 -42 -32 -93 -85 l-92 -98 -30 21 c-31 21 -130
69 -143 69 -4 0 -13 4 -20 9 -10 6 -7 30 18 116 35 126 36 132 13 114 -15 -12
-16 -12 -10 4 14 37 -4 14 -27 -35 -26 -56 -33 -49 -15 16 8 29 8 41 -1 50 -9
8 -11 6 -5 -12 6 -21 5 -22 -12 -14 -19 11 -27 -6 -68 -150 l-16 -58 -84 0
-83 0 -7 86 c-7 85 -32 200 -34 157z"/>
<path d="M6942 7809 c-108 -19 -200 -88 -244 -184 -34 -76 -32 -191 5 -267 43
-88 117 -132 297 -178 46 -12 96 -28 111 -35 37 -20 44 -61 13 -92 -29 -29
-111 -32 -164 -5 -29 14 -71 61 -82 92 -3 8 -236 -35 -247 -45 -2 -3 7 -33 20
-67 17 -48 38 -78 83 -124 52 -51 72 -64 133 -83 96 -31 256 -27 346 8 81 32
157 107 186 186 29 76 26 188 -7 251 -51 99 -105 133 -282 179 -128 34 -158
48 -166 81 -13 52 55 86 134 65 37 -10 59 -29 87 -75 9 -15 21 -13 118 20 104
35 108 37 102 61 -18 72 -104 160 -188 191 -65 25 -181 34 -255 21z"/>
<path d="M4950 7305 l0 -495 135 0 135 0 0 495 0 495 -135 0 -135 0 0 -495z"/>
<path d="M5620 7306 l0 -496 135 0 135 0 0 179 0 179 128 4 c115 3 134 6 184
31 64 32 111 80 142 146 30 65 30 207 0 272 -31 66 -86 123 -147 150 -50 23
-64 24 -314 27 l-263 3 0 -495z m405 264 c69 -16 94 -74 60 -139 -18 -36 -32
-41 -122 -48 l-73 -6 0 102 0 101 48 0 c26 0 65 -5 87 -10z"/>
<path d="M2667 11463 c-1033 -1032 -1606 -1610 -1619 -1637 -30 -56 -30 -156
0 -211 12 -23 206 -225 461 -480 l441 -440 -250 -250 c-164 -164 -255 -263
-265 -287 -20 -49 -19 -134 3 -181 11 -24 141 -162 357 -378 l339 -340 -246
-247 c-216 -216 -248 -253 -263 -296 -19 -60 -13 -114 20 -171 13 -22 1006
-1022 2207 -2221 2084 -2083 2185 -2182 2230 -2193 66 -16 96 -14 148 10 35
16 507 482 2223 2197 1362 1361 2186 2192 2199 2217 29 54 28 136 -1 193 -12
23 -24 42 -26 42 -3 0 4 -19 16 -41 28 -55 29 -131 2 -189 -16 -35 -509 -532
-2199 -2222 -2148 -2145 -2180 -2177 -2234 -2192 -58 -17 -145 -13 -133 7 3 6
1 7 -5 3 -6 -4 -22 -2 -34 5 -32 16 -4347 4332 -4342 4341 3 5 -1 8 -9 8 -7 0
-23 20 -35 44 -28 55 -29 136 -3 191 12 25 105 125 252 272 l234 232 113 -108
c61 -60 112 -113 112 -117 0 -5 -82 -91 -182 -191 l-183 -183 2075 -2075 2075
-2075 2072 2072 c1140 1140 2072 2076 2071 2080 -2 4 -86 91 -188 193 l-184
185 -76 -75 -77 -76 70 -67 c38 -37 75 -79 83 -94 17 -32 18 -86 4 -125 -12
-32 -3659 -3686 -3702 -3709 -15 -8 -49 -14 -76 -14 -38 0 -57 6 -88 29 -70
52 -3673 3665 -3684 3694 -14 40 -13 93 4 125 8 15 44 56 80 92 l66 65 693
-690 c380 -380 164 -161 -481 485 -645 647 -1169 1180 -1165 1185 4 4 3 5 -3
2 -17 -10 -109 96 -122 141 -7 22 -12 57 -12 78 1 79 30 117 281 370 l240 241
122 -118 122 -118 -190 -190 -190 -191 2165 -2165 2165 -2165 2165 2165 2165
2165 -190 190 -190 190 120 120 121 121 250 -253 c206 -209 252 -260 262 -294
19 -66 15 -125 -13 -179 -13 -27 -23 -51 -21 -53 2 -1 15 21 30 49 33 66 35
144 6 203 -12 25 -113 135 -265 286 l-245 245 449 450 c431 432 450 452 465
504 19 65 19 66 5 129 -6 29 -22 63 -40 83 l-30 34 24 -35 c14 -19 30 -60 37
-91 11 -47 10 -64 -4 -115 l-17 -59 -2467 -2468 c-1822 -1822 -2479 -2473
-2512 -2490 -57 -28 -158 -29 -210 -3 -44 22 -4961 4936 -4953 4949 3 6 1 7
-4 4 -18 -11 -43 69 -43 134 0 33 7 76 15 97 11 26 476 498 1618 1640 881 881
1600 1602 1597 1602 -3 0 -724 -719 -1603 -1597z m1508 -4994 c1091 -1091
1836 -1829 1860 -1842 53 -28 164 -30 215 -3 19 10 857 840 1862 1844 l1828
1827 70 -72 c80 -84 98 -127 80 -195 -10 -39 -198 -230 -1928 -1961 -1134
-1135 -1930 -1925 -1949 -1933 -42 -18 -97 -18 -136 1 -18 8 -895 878 -1949
1932 -1683 1684 -1918 1923 -1927 1958 -12 48 -2 103 27 139 25 32 115 125
122 126 3 0 824 -819 1825 -1821z"/>
<path d="M5145 4250 c462 -465 842 -844 845 -842 2 2 -376 382 -840 845 l-845
842 840 -845z"/>
<path d="M129 1671 c-44 -14 -76 -41 -90 -74 -20 -47 -19 -351 1 -391 25 -48
63 -70 133 -74 110 -6 161 39 173 151 l6 67 -70 0 -71 0 -3 -62 c-3 -55 -5
-63 -23 -63 -19 0 -20 7 -22 170 -2 94 1 176 6 184 5 8 16 11 25 8 13 -5 16
-21 16 -77 l0 -70 71 0 72 0 -7 72 c-8 86 -21 116 -63 140 -36 22 -116 31
-154 19z"/>
<path d="M1796 1670 c-34 -11 -63 -36 -82 -72 -22 -42 -20 -348 3 -395 45 -96
231 -95 277 1 15 31 17 62 14 216 l-3 180 -31 31 c-43 42 -114 58 -178 39z
m78 -96 c8 -20 8 -318 0 -338 -3 -9 -12 -16 -19 -16 -7 0 -16 7 -19 16 -8 20
-8 302 0 332 7 25 29 29 38 6z"/>
<path d="M3677 1666 c-88 -33 -97 -56 -97 -261 0 -225 17 -260 134 -272 65 -7
114 8 151 47 23 24 28 39 33 99 l5 71 -72 0 -71 0 0 -65 c0 -57 -2 -65 -19
-65 -25 0 -31 40 -31 206 0 94 4 135 13 149 24 32 37 8 37 -66 l0 -69 71 0 71
0 -4 74 c-4 83 -23 120 -73 145 -42 20 -104 23 -148 7z"/>
<path d="M4046 1670 c-35 -11 -64 -36 -82 -72 -22 -42 -20 -348 3 -395 32 -67
144 -93 224 -52 62 31 69 59 69 256 0 149 -2 172 -20 200 -10 18 -30 39 -43
48 -30 19 -112 28 -151 15z m78 -102 c8 -30 8 -312 0 -332 -3 -9 -12 -16 -19
-16 -22 0 -25 26 -25 185 0 84 3 160 6 169 9 23 31 19 38 -6z"/>
<path d="M4767 1666 c-51 -19 -63 -31 -83 -81 -13 -36 -15 -72 -13 -204 4
-142 6 -163 25 -188 61 -83 207 -83 268 0 19 26 21 42 21 210 0 162 -2 185
-19 210 -37 54 -129 79 -199 53z"/>
<path d="M5149 1673 c-15 -2 -44 -19 -65 -37 l-39 -34 -3 -188 c-3 -184 -3
-190 20 -224 54 -80 212 -80 271 1 12 17 21 50 24 93 l6 66 -72 0 -71 0 0 -65
c0 -57 -2 -65 -19 -65 -10 0 -22 7 -25 16 -3 9 -6 84 -6 168 0 112 4 157 13
171 24 32 37 8 37 -66 l0 -69 71 0 72 0 -5 74 c-5 83 -22 117 -68 141 -32 17
-100 26 -141 18z"/>
<path d="M7319 1671 c-95 -31 -104 -54 -104 -272 l0 -176 27 -35 c33 -44 83
-62 150 -56 58 6 96 31 121 79 15 29 17 56 15 204 -3 187 -10 210 -69 241 -36
18 -106 26 -140 15z"/>
<path d="M8557 1666 c-89 -33 -97 -56 -97 -263 0 -191 9 -225 70 -256 47 -24
148 -19 187 9 40 29 63 81 63 142 l0 52 -70 0 -70 0 0 -65 c0 -57 -2 -65 -19
-65 -26 0 -31 35 -31 199 0 99 4 142 13 156 24 32 37 8 37 -66 l0 -69 71 0 71
0 -4 74 c-4 83 -23 120 -73 145 -42 20 -104 23 -148 7z"/>
<path d="M8926 1670 c-35 -11 -64 -36 -82 -72 -20 -39 -20 -345 1 -394 40 -96
233 -97 279 0 22 47 24 352 1 396 -31 60 -125 94 -199 70z m78 -102 c8 -30 8
-312 0 -332 -3 -9 -12 -16 -19 -16 -22 0 -25 26 -25 185 0 84 3 160 6 169 9
23 31 19 38 -6z"/>
<path d="M10395 1671 c-47 -12 -82 -39 -96 -74 -20 -46 -18 -351 2 -391 23
-48 62 -70 132 -74 111 -6 162 38 173 151 l7 67 -71 0 -71 0 -3 -62 c-3 -55
-5 -63 -23 -63 -19 0 -20 7 -22 170 -2 94 1 176 6 184 5 8 16 11 25 8 13 -5
16 -21 16 -77 l0 -70 71 0 72 0 -6 76 c-6 83 -22 116 -67 139 -37 19 -105 27
-145 16z"/>
<path d="M11055 1665 c-46 -16 -80 -55 -89 -98 -3 -16 -6 -95 -6 -176 0 -161
9 -196 62 -235 39 -28 132 -33 177 -9 71 37 76 53 76 251 0 150 -3 182 -18
209 -32 59 -126 86 -202 58z"/>
<path d="M12036 1667 c-57 -18 -77 -51 -78 -129 -2 -82 10 -102 101 -168 55
-40 70 -57 75 -84 8 -42 -1 -66 -24 -66 -18 0 -30 35 -30 86 0 23 -3 24 -61
24 l-61 0 4 -64 c6 -95 52 -136 153 -136 105 0 148 43 148 148 0 90 -17 120
-102 176 -72 49 -87 70 -77 112 10 40 40 27 44 -19 l3 -37 60 0 59 0 0 46 c0
25 -5 54 -10 65 -24 44 -133 69 -204 46z"/>
<path d="M400 1405 l0 -265 116 0 115 0 -3 53 -3 52 -45 1 -45 0 -3 57 -3 57
46 0 45 0 0 50 0 50 -45 0 -45 0 0 50 0 50 44 0 44 0 4 45 c2 24 2 49 0 55 -2
6 -48 10 -113 10 l-109 0 0 -265z"/>
<path d="M677 1663 c-4 -3 -7 -123 -7 -265 l0 -258 60 0 60 0 1 113 c0 61 2
108 4 102 2 -5 18 -56 35 -112 l31 -103 59 0 60 0 0 265 0 266 -57 -3 -57 -3
0 -108 c0 -59 -3 -104 -7 -100 -4 5 -22 54 -40 111 l-33 102 -51 0 c-29 0 -55
-3 -58 -7z"/>
<path d="M1010 1615 l0 -55 40 0 40 0 0 -210 0 -210 70 0 70 0 0 210 0 210 40
0 40 0 0 55 0 55 -150 0 -150 0 0 -55z"/>
<path d="M1340 1405 l0 -265 70 0 70 0 0 120 c0 66 4 120 8 120 25 0 32 -30
32 -132 l0 -108 65 0 65 0 0 99 c0 114 -8 144 -46 164 l-27 14 26 7 c52 13 61
147 13 203 -26 30 -81 41 -203 42 l-73 1 0 -265z"/>
<path d="M2188 1665 c-5 -5 -8 -125 -8 -267 l0 -258 118 0 c132 0 181 15 193
60 11 40 10 364 -1 397 -17 48 -55 63 -182 70 -62 3 -116 2 -120 -2z"/>
<path d="M2550 1405 l0 -265 121 0 120 0 -3 53 -3 52 -47 0 -48 0 0 57 0 58
40 0 40 0 0 50 0 50 -40 0 -40 0 0 50 0 50 45 0 45 0 0 55 0 55 -115 0 -115 0
0 -265z"/>
<path d="M2950 1407 l0 -267 65 0 65 0 0 121 c0 106 2 120 16 115 9 -3 18 -6
20 -6 2 0 4 -52 4 -115 l0 -115 65 0 65 0 0 111 0 111 -31 29 c-17 16 -26 29
-20 29 6 0 20 9 31 20 23 23 28 105 9 159 -16 47 -53 61 -179 68 l-110 6 0
-266z"/>
<path d="M3305 1657 c-3 -7 -4 -125 -3 -262 l3 -250 118 -3 118 -3 -3 53 -3
53 -45 1 -45 1 -3 56 -3 57 46 0 45 0 0 50 0 50 -45 0 -45 0 0 50 0 50 45 0
45 0 0 55 0 55 -110 0 c-80 0 -112 -4 -115 -13z"/>
<path d="M4318 1658 c-2 -7 -3 -125 -3 -263 l0 -250 58 -3 57 -3 1 113 c1 122
0 122 44 -24 l26 -88 60 0 59 0 0 265 0 265 -55 0 -55 0 0 -112 c0 -62 -4
-108 -8 -103 -5 6 -23 56 -41 113 l-32 102 -54 0 c-33 0 -54 -5 -57 -12z"/>
<path d="M5410 1405 l0 -265 70 0 70 0 -2 263 -3 262 -67 3 -68 3 0 -266z"/>
<path d="M5600 1405 l0 -265 60 0 60 0 1 158 c1 168 3 165 34 -40 l18 -118 42
0 42 0 20 148 20 147 2 -147 1 -148 60 0 60 0 0 265 0 266 -87 -3 -88 -3 -15
-115 c-17 -126 -15 -128 -41 43 l-12 77 -88 0 -89 0 0 -265z"/>
<path d="M6080 1405 l0 -265 70 0 70 0 -2 263 -3 262 -67 3 -68 3 0 -266z"/>
<path d="M6270 1405 l0 -265 121 0 120 0 -3 53 -3 52 -47 0 -48 -1 0 58 0 58
40 0 40 0 0 50 0 50 -40 0 -40 0 0 50 0 50 45 0 45 0 0 55 0 55 -115 0 -115 0
0 -265z"/>
<path d="M6550 1405 l0 -265 55 0 55 0 0 113 c0 63 4 105 9 97 4 -8 21 -59 36
-112 l28 -98 59 0 58 0 0 265 0 265 -55 0 -55 0 -1 -117 -1 -118 -37 115 -37
115 -57 3 -57 3 0 -266z"/>
<path d="M6890 1615 l0 -55 40 0 40 0 0 -210 0 -210 65 0 65 0 0 209 0 210 42
3 41 3 -1 43 c0 23 -1 47 -1 52 -1 6 -57 10 -146 10 l-145 0 0 -55z"/>
<path d="M7700 1407 l0 -267 115 0 c135 0 180 13 192 57 4 15 8 109 8 209 0
248 -2 250 -202 261 l-113 6 0 -266z m180 5 c0 -149 -10 -196 -38 -178 -13 8
-18 327 -6 339 4 3 15 2 25 -4 17 -9 19 -23 19 -157z"/>
<path d="M8070 1405 l0 -265 116 0 115 0 -3 53 -3 52 -45 0 -45 0 -3 58 -3 57
46 0 45 0 0 50 0 50 -45 0 -45 0 0 50 0 50 45 0 45 0 0 55 0 55 -110 0 -110 0
0 -265z"/>
<path d="M9195 1658 c-3 -7 -4 -125 -2 -263 l2 -250 58 -3 57 -3 1 113 c1 122
0 122 44 -24 l26 -88 59 0 60 0 0 265 0 265 -55 0 -55 0 0 -112 c0 -68 -4
-108 -9 -103 -5 6 -24 56 -41 113 l-32 102 -54 0 c-35 0 -56 -5 -59 -12z"/>
<path d="M9560 1406 l0 -268 131 4 c129 3 131 3 155 31 24 28 24 32 24 218 0
264 -1 264 -195 276 l-115 6 0 -267z m160 164 c12 -7 16 -38 18 -147 4 -142
-5 -193 -33 -193 -13 0 -15 25 -15 175 0 96 3 175 8 175 4 0 14 -5 22 -10z"/>
<path d="M9920 1458 c0 -183 2 -218 18 -247 26 -52 63 -74 129 -78 67 -5 114
15 147 60 19 25 20 42 21 250 l0 222 -67 3 -68 3 0 -210 c0 -115 -3 -216 -6
-225 -3 -9 -12 -16 -20 -16 -12 0 -14 39 -14 225 l0 225 -70 0 -70 0 0 -212z"/>
<path d="M10637 1663 c-4 -3 -7 -28 -7 -55 l0 -48 45 0 46 0 -1 -207 -2 -208
66 -3 66 -3 0 211 0 210 40 0 40 0 0 55 0 55 -143 0 c-79 0 -147 -3 -150 -7z"/>
<path d="M11330 1406 l0 -266 70 0 70 0 0 120 c0 70 4 120 10 120 21 0 30 -43
30 -139 l0 -101 63 0 62 0 -3 102 c-3 131 -6 144 -40 162 -16 9 -21 15 -11 16
32 0 49 34 49 98 0 123 -22 141 -184 149 l-116 6 0 -267z"/>
<path d="M11690 1405 l0 -266 118 3 117 3 0 50 0 50 -51 3 -52 3 -1 54 0 55
44 0 45 0 0 50 0 50 -39 0 c-43 0 -51 10 -51 65 0 33 1 34 48 37 l47 3 0 50 0
50 -112 3 -113 3 0 -266z"/>
<path d="M1037 660 c-109 -19 -199 -93 -230 -191 -23 -71 -23 -204 2 -268 52
-137 167 -200 341 -188 127 8 209 57 257 151 23 43 28 67 31 156 3 88 1 114
-17 160 -37 97 -113 158 -226 179 -65 12 -88 12 -158 1z m148 -164 c39 -26 55
-59 61 -127 8 -81 -9 -143 -47 -182 -28 -27 -34 -29 -91 -25 -51 4 -65 9 -84
31 -75 87 -50 278 41 318 28 12 91 4 120 -15z"/>
<path d="M6259 660 c-174 -30 -267 -181 -239 -383 17 -119 88 -217 177 -246
60 -19 184 -25 241 -11 89 21 166 96 187 181 6 26 4 27 -64 48 -39 12 -76 24
-83 26 -8 3 -22 -13 -35 -43 -25 -53 -53 -72 -109 -72 -49 0 -89 23 -105 62
-21 49 -18 194 4 235 38 70 136 83 188 25 15 -16 28 -34 30 -40 5 -14 161 20
167 36 5 16 -39 90 -70 119 -56 52 -187 81 -289 63z"/>
<path d="M8349 660 c-95 -17 -176 -78 -213 -160 -27 -62 -34 -207 -12 -282 22
-78 74 -140 143 -175 53 -26 67 -28 168 -28 93 0 116 4 150 22 50 26 86 65
114 120 33 65 30 69 -61 97 -45 14 -82 25 -83 23 -1 -1 -9 -21 -19 -44 -24
-54 -53 -73 -110 -73 -36 0 -52 6 -76 28 -61 54 -63 232 -3 294 51 54 145 45
183 -17 l20 -33 81 18 c44 10 82 20 84 22 8 8 -39 86 -72 120 -57 58 -185 88
-294 68z"/>
<path d="M77 654 c-4 -4 -7 -148 -7 -321 l0 -313 95 0 95 0 2 169 3 168 114
-168 115 -169 93 0 93 0 0 320 0 321 -92 -3 -93 -3 0 -168 c0 -92 -3 -166 -7
-165 -4 2 -58 77 -120 168 l-113 165 -86 3 c-47 1 -88 0 -92 -4z"/>
<path d="M1558 655 c-5 -5 -8 -149 -8 -322 l0 -313 100 0 100 0 0 130 c0 120
1 130 19 130 35 0 71 -41 128 -150 l58 -110 108 0 c79 0 107 3 107 13 0 6 -27
59 -59 117 -38 69 -68 112 -89 125 -17 11 -31 22 -32 25 0 4 16 12 35 18 93
34 131 167 74 261 -37 61 -84 73 -323 78 -116 3 -214 2 -218 -2z m330 -136
c34 -12 47 -37 38 -73 -8 -31 -46 -46 -116 -46 l-60 0 0 65 0 65 54 0 c29 0
67 -5 84 -11z"/>
<path d="M2190 580 l0 -80 100 0 100 0 0 -240 0 -240 100 0 100 0 0 240 0 240
100 0 101 0 -3 78 -3 77 -297 3 -298 2 0 -80z"/>
<path d="M2880 340 l0 -320 265 0 265 0 0 70 0 70 -167 2 -168 3 -3 63 -3 62
156 0 155 0 0 65 0 65 -155 0 -155 0 0 50 0 50 165 0 165 0 0 70 0 70 -260 0
-260 0 0 -320z"/>
<path d="M3820 340 l0 -322 188 5 c103 2 203 9 223 16 50 16 113 73 139 127
16 32 24 71 28 132 9 170 -35 272 -141 326 -57 29 -61 30 -247 34 l-190 5 0
-323z m320 155 c50 -26 62 -64 58 -177 -3 -93 -5 -101 -29 -122 -26 -23 -129
-43 -150 -31 -5 4 -9 82 -9 176 l0 169 50 0 c28 0 64 -7 80 -15z"/>
<path d="M4510 340 l0 -320 265 0 265 0 0 70 0 70 -167 2 -168 3 -3 63 -3 62
156 0 155 0 0 65 0 65 -155 0 -155 0 0 50 0 50 165 0 165 0 0 70 0 70 -260 0
-260 0 0 -320z"/>
<path d="M5150 340 l0 -320 250 0 250 0 0 80 0 80 -155 0 -155 0 0 240 0 240
-95 0 -95 0 0 -320z"/>
<path d="M6901 643 c-12 -24 -231 -605 -231 -615 0 -4 44 -8 98 -8 l98 0 13
49 c7 27 19 52 28 55 8 3 59 6 113 6 l99 0 16 -55 16 -55 99 0 c55 0 100 3
100 8 0 4 -52 148 -117 320 l-117 312 -103 0 c-87 0 -104 -3 -112 -17z m145
-273 c17 -55 29 -102 26 -105 -3 -3 -34 -5 -70 -5 -56 0 -64 2 -59 18 29 105
62 201 66 196 3 -3 20 -50 37 -104z"/>
<path d="M7390 447 c0 -238 8 -286 60 -349 46 -56 104 -79 213 -85 59 -4 113
-1 145 7 68 16 134 67 163 127 23 46 24 60 27 281 l4 233 -99 -3 -98 -3 -5
-223 -5 -224 -28 -24 c-44 -38 -142 -29 -164 15 -4 9 -10 115 -13 236 l-5 220
-97 3 -98 3 0 -214z"/>
<path d="M8997 653 c-6 -9 -237 -623 -237 -629 0 -2 44 -4 98 -4 l99 0 12 42
c7 24 17 48 22 54 11 13 198 19 215 7 6 -5 16 -29 24 -55 l13 -48 103 0 104 0
-11 28 c-6 15 -57 151 -114 302 -57 151 -106 283 -110 293 -6 15 -21 17 -110
17 -57 0 -106 -3 -108 -7z m167 -368 l6 -25 -71 0 c-59 0 -70 3 -65 15 3 8 17
54 32 102 14 49 29 92 31 97 5 7 50 -119 67 -189z"/>
<path d="M9810 340 l0 -320 250 0 250 0 0 80 0 80 -152 0 -153 0 3 217 c2 120
0 228 -3 241 -5 21 -10 22 -100 22 l-95 0 0 -320z"/>
<path d="M10317 653 c-4 -3 -7 -39 -7 -80 l0 -73 100 0 100 0 0 -240 0 -240
100 0 100 0 0 240 0 240 100 0 100 0 0 80 0 80 -293 0 c-162 0 -297 -3 -300
-7z"/>
<path d="M11008 654 c-5 -4 -8 -148 -8 -321 l0 -313 168 0 c254 0 325 27 383
146 28 56 31 72 32 156 0 130 -20 196 -81 257 -26 25 -65 52 -87 60 -45 14
-395 28 -407 15z m317 -160 c45 -21 60 -62 60 -164 0 -66 -4 -92 -19 -117 -20
-33 -30 -37 -118 -49 l-48 -6 0 176 0 176 46 0 c25 0 61 -7 79 -16z"/>
<path d="M11820 638 c-15 -35 -230 -609 -230 -614 0 -2 45 -4 100 -4 l99 0 12
43 c6 23 16 48 21 54 12 14 194 18 215 5 6 -4 17 -29 23 -55 l12 -47 104 0
103 0 -13 38 c-14 37 -208 552 -221 585 -6 15 -21 17 -111 17 -99 0 -105 -1
-114 -22z m180 -370 c0 -9 -124 -11 -132 -3 -5 5 39 160 58 205 5 12 73 -174
74 -202z"/>
</g>
</svg>
